<?xml version="1.0" encoding="UTF-8" standalone="no"?>
<!-- Created with Inkscape (http://www.inkscape.org/) -->

<svg
   version="1.1"
   id="svg2"
   width="1420"
   height="1420"
   viewBox="0 0 1420 1420"
   sodipodi:docname="hsbp-logo_traced.svg"
   inkscape:version="1.2.2 (b0a8486541, 2022-12-01)"
   xmlns:inkscape="http://www.inkscape.org/namespaces/inkscape"
   xmlns:sodipodi="http://sodipodi.sourceforge.net/DTD/sodipodi-0.dtd"
   xmlns="http://www.w3.org/2000/svg"
   xmlns:svg="http://www.w3.org/2000/svg">
  <defs
     id="defs6" />
  <sodipodi:namedview
     id="namedview4"
     pagecolor="#ffffff"
     bordercolor="#000000"
     borderopacity="0.25"
     inkscape:showpageshadow="2"
     inkscape:pageopacity="0.0"
     inkscape:pagecheckerboard="0"
     inkscape:deskcolor="#d1d1d1"
     showgrid="false"
     inkscape:zoom="0.37855253"
     inkscape:cx="376.43389"
     inkscape:cy="701.35577"
     inkscape:window-width="1854"
     inkscape:window-height="1011"
     inkscape:window-x="0"
     inkscape:window-y="0"
     inkscape:window-maximized="1"
     inkscape:current-layer="g8" />
  <g
     inkscape:groupmode="layer"
     inkscape:label="Image"
     id="g8">
    <path
       style="fill:#000000"
       d="m 607.34426,1202.9623 v -79.0438 l 7.25,0.2938 7.25,0.2938 1.39027,7.3216 1.39026,7.3216 4.78515,-5.017 c 8.78696,-9.2126 21.2635,-13.2302 34.51267,-11.1137 8.89064,1.4203 14.93706,4.4308 20.98628,10.4489 10.20208,10.1497 14.69139,24.2746 14.63241,46.0386 -0.0949,35.0233 -15.66948,55.5 -42.21328,55.5 -11.951,0 -21.81062,-4.1443 -28.98376,-12.1828 l -3.5,-3.9222 0.35464,31.5525 0.35464,31.5525 h -9.10464 -9.10464 z m 56.78212,15.4908 c 10.27829,-4.2935 15.64744,-15.2715 16.84752,-34.447 1.11216,-17.7707 -2.64064,-33.1015 -9.80473,-40.054 -5.0342,-4.8855 -9.53362,-6.4225 -18.51079,-6.323 -8.50354,0.094 -16.91916,3.6092 -20.4234,8.5305 -5.61517,7.8858 -8.36708,28.9943 -5.98719,45.9248 1.39058,9.8925 5.77465,19.8443 10.0983,22.923 6.92776,4.933 20.26078,6.5867 27.78029,3.4457 z m 452.53512,62.05 c -8.617,-1.8731 -15.1512,-4.9587 -19.6864,-9.2964 -5.6619,-5.4152 -7.5827,-10.2758 -7.6088,-19.2543 -0.037,-12.859 5.5615,-20.6623 18.2533,-25.4398 l 4.7753,-1.7975 -2.8553,-1.7365 c -8.9028,-5.414 -7.7957,-22.1281 1.9099,-28.8339 2.1004,-1.4512 3.836,-2.9645 3.8568,-3.3629 0.021,-0.3984 -1.1995,-1.3725 -2.712,-2.1647 -10.9024,-5.7103 -17.2732,-22.5663 -14.2981,-37.8304 2.5942,-13.3099 10.3616,-21.9958 23.1411,-25.8775 7.7368,-2.35 9.9756,-2.4188 45.157,-1.388 l 23.75,0.6958 v 5.7145 5.7145 l -9.2133,1.2266 c -5.0672,0.6747 -9.321,1.3345 -9.4528,1.4663 -0.1318,0.1318 0.9766,2.697 2.4632,5.7005 2.3703,4.7888 2.7029,6.6422 2.7029,15.0613 0,8.9977 -0.2197,10.0314 -3.5,16.4653 -2.5503,5.0021 -4.8567,7.8897 -8.5,10.6419 -7.2117,5.4479 -12.2986,6.9516 -25.5,7.5379 -9.2415,0.4105 -12.043,0.8944 -14.2651,2.4644 -3.3679,2.3795 -5.7402,6.733 -5.7196,10.4962 0.037,6.7242 2.8567,7.6353 25.9847,8.3956 23.3725,0.7683 28.5965,2.1936 36.0655,9.8405 5.3211,5.4477 7.4476,11.4588 7.2748,20.5636 -0.3845,20.2462 -13.0884,31.8843 -38.6627,35.4189 -10.3833,1.435 -25.7095,1.2412 -33.3604,-0.4219 z m 39.9484,-15.4325 c 6.6378,-2.5557 11.1466,-6.0271 13.3417,-10.2721 2.1341,-4.1269 1.9831,-13.0977 -0.2859,-16.9781 -3.0025,-5.1351 -7.1851,-6.0158 -29.3214,-6.1745 -18.5623,-0.1331 -19.7281,-0.027 -24.243,2.196 -6.6127,3.2566 -9.095,7.1087 -9.59,14.8818 -0.4755,7.4678 0.9394,11.5099 5.0548,14.4403 5.6402,4.0162 10.3709,4.8544 25.2782,4.479 11.4887,-0.2893 15.0342,-0.7507 19.7656,-2.5724 z m -7.5906,-85.405 c 7.0648,-3.6749 10.3447,-10.335 10.2811,-20.8774 -0.098,-16.2159 -6.6483,-23.1017 -22.008,-23.1344 -10.3111,-0.022 -15.3446,2.6738 -19.1981,10.2816 -3.0225,5.9673 -3.7108,15.0706 -1.6899,22.348 1.5213,5.478 6.3305,10.4599 11.7934,12.2171 5.5455,1.7837 16.6428,1.3387 20.8215,-0.8349 z m -383.31,54.4214 c -4.38472,-2.6736 -6.82174,-9.3669 -6.06834,-16.6667 1.01044,-9.7903 5.14028,-13.6142 14.7033,-13.6142 9.67193,0 13.82373,3.9355 14.67915,13.9143 1.02721,11.9827 -4.00107,18.289 -14.57703,18.282 -3.75042,0 -6.63834,-0.6356 -8.73708,-1.9154 z m -376.86504,0.25 c -4.74289,-0.5841 -11.62924,-2.2848 -16.25,-4.013 l -4.25,-1.5896 v -8.3193 -8.3194 l 6.25,2.3415 c 11.38235,4.2643 20.8248,5.8141 33.05647,5.4258 9.60804,-0.305 11.95466,-0.7213 16.10233,-2.8569 8.17634,-4.21 10.85795,-12.3288 6.3094,-19.1021 -2.83841,-4.2268 -8.60819,-7.412 -25.2182,-13.9219 -27.83019,-10.9074 -34.53831,-17.4431 -34.47804,-33.592 0.0285,-7.6475 2.46237,-12.8799 8.43746,-18.1394 10.43048,-9.1812 28.62887,-12.104 50.54058,-8.1171 8.45434,1.5383 18,4.8903 18,6.3207 0,1.5391 -4.00578,11.6719 -5.1216,12.9554 -0.45857,0.5274 -2.57401,0.2377 -5.08198,-0.6961 -9.00912,-3.3545 -17.53986,-4.9812 -26.29642,-5.0145 -10.3301,-0.039 -16.28846,1.3608 -20.23405,4.7547 -2.39552,2.0605 -2.76595,3.1133 -2.76595,7.8607 0,4.0768 0.51254,6.0491 2,7.696 2.56098,2.8354 10.60397,6.854 22,10.9921 28.90031,10.4942 37.82815,18.7663 37.67625,34.9089 -0.14201,15.0926 -8.71953,24.7578 -25.86273,29.1423 -7.21566,1.8454 -24.94257,2.4988 -34.81352,1.2832 z m 135,-0.6665 c -6.85796,-2.2773 -10.81963,-4.702 -16.1405,-9.8786 l -5.1405,-5.0012 -1.83099,7.1077 -1.83099,7.1077 h -6.77851 -6.77851 v -77 -77 h 9 9 v 29.5918 29.5918 l 4.39423,-4.5214 c 11.25138,-11.5768 30.78423,-14.5832 46.23031,-7.1154 9.90521,4.7888 18.57143,17.0397 22.07302,31.2032 2.30772,9.3344 2.2905,32.1903 -0.0314,41.75 -3.73117,15.3615 -12.36063,27.2308 -23.39622,32.1802 -7.00463,3.1416 -22.14085,4.1855 -28.76989,1.9842 z m 19,-15.5301 c 10.24681,-4.6667 15.34047,-15.702 16.2295,-35.1607 1.22216,-26.7501 -5.89093,-41.7893 -21.2757,-44.9832 -13.8162,-2.8682 -26.09409,3.0868 -30.46821,14.7777 -4.80148,12.8331 -4.81396,38.5974 -0.0249,51.3973 2.38339,6.3702 7.90114,12.1662 13.55036,14.2338 5.76303,2.1092 17.07542,1.9729 21.98895,-0.2649 z m 339.60463,15.2832 c -8.20711,-2.207 -14.65811,-6.1838 -20.92392,-12.8986 -6.28761,-6.7381 -10.33784,-14.1999 -12.87825,-23.7255 -2.2909,-8.5901 -2.27896,-27.9985 0.0226,-36.7934 5.4543,-20.8422 20.2099,-34.4687 40.04853,-36.984 32.97989,-4.1814 56.62641,19.1968 56.62641,55.984 0,28.7575 -14.63931,50.0142 -37.79922,54.8854 -7.17041,1.5082 -18.53582,1.2963 -25.09615,-0.4679 z m 27.46358,-16.166 c 5.64419,-2.9228 10.76153,-8.919 13.5444,-15.8707 2.14934,-5.369 2.35421,-7.3602 2.35421,-22.8808 0,-15.2222 -0.23144,-17.5752 -2.21311,-22.5 -3.07035,-7.6304 -7.31983,-12.396 -13.94305,-15.6364 -4.77928,-2.3383 -6.91803,-2.7636 -13.89806,-2.7636 -7.17098,0 -9.00016,0.3857 -13.99072,2.95 -6.7203,3.4531 -11.48257,9.607 -14.17622,18.3187 -2.71982,8.7965 -2.46226,31.3539 0.46421,40.6544 3.21237,10.2091 9.2032,16.6311 18.28366,19.5995 4.76868,1.5589 19.15634,0.417 23.57468,-1.8711 z m -667.56821,-61.2515 v -77 h 9.07822 9.07822 l -0.32822,30.0007 c -0.18052,16.5003 -0.10322,29.9972 0.17178,29.9931 0.275,0 1.5431,-1.5394 2.81801,-3.4118 6.60904,-9.7062 23.13191,-15.0555 38.82035,-12.5681 16.51056,2.6177 25.94292,11.259 29.23726,26.7853 0.72256,3.4055 1.12438,19.219 1.12438,44.25 v 38.9508 h -9 -9 v -37.8411 c 0,-40.3852 -0.3214,-43.5884 -5.03819,-50.2125 -5.5525,-7.7978 -21.50213,-9.9406 -32.55915,-4.3742 -6.86942,3.4582 -10.58217,7.8045 -13.63465,15.9612 -2.12744,5.6848 -2.24877,7.6314 -2.56903,41.2166 l -0.33614,35.25 h -8.93142 -8.93142 z m 741,22.4562 v -54.5438 l 7.25,0.2938 7.25,0.2938 1,9.5 c 0.5967,5.6686 1.40334,9.3078 2.00004,9.0235 0.55,-0.262 2.6355,-2.5456 4.6346,-5.0745 8.5241,-10.7838 17.7977,-15.1512 32.3654,-15.2422 10.6078,-0.066 23.5,2.6744 23.5,4.9957 0,1.5183 -3.997,15.2975 -4.4374,15.2975 -0.1335,0 -3.7616,-0.9 -8.0626,-2 -20.8369,-5.3292 -35.9669,-0.3066 -43.5,14.4404 l -3.5,6.8516 -0.3084,35.354 -0.3084,35.354 h -8.94161 -8.94163 z m -286,-131.5144 c -36.61159,-3.3566 -71.58016,-21.2693 -95.73742,-49.04157 -50.24521,-57.7642 -47.44019,-143.80344 6.46364,-198.26174 17.8254,-18.00876 40.01463,-30.94604 64.77378,-37.76593 24.57568,-6.76935 54.14354,-6.54761 78.77659,0.59077 48.89689,14.16976 87.54686,54.08416 100.2568,103.5367 9.72056,37.8213 3.205,80.5313 -17.20056,112.7511 -25.09596,39.62577 -65.07945,64.12037 -111.35135,68.21557 -12.57781,1.1132 -13.57849,1.1123 -25.98148,-0.025 z m 72.5,-51.12647 c 5.23937,-1.282 11.83775,-5.1476 13.69688,-8.0243 1.6956,-2.6236 1.02674,-13.2449 -1.71859,-27.291 -4.6362,-23.7204 -14.25192,-40.1508 -31.66805,-54.1112 -13.54867,-10.8604 -18.80614,-13.6965 -42.58725,-22.9735 -9.19764,-3.588 -20.86763,-8.7338 -25.9333,-11.4351 -8.61601,-4.5946 -23.28969,-13.81932 -23.28969,-14.64131 0,-0.20222 2.6527,0.9714 5.8949,2.60805 10.94806,5.52656 22.57598,9.89006 40.1289,15.05876 21.85121,6.4344 31.64877,10.6211 43.85938,18.7418 22.94278,15.2581 37.0008,35.1984 43.18345,61.2525 1.2399,5.225 2.66923,9.95 3.1763,10.5 0.59406,0.6444 2.4391,-0.6642 5.18785,-3.6792 5.5216,-6.0566 7.11407,-12.8367 6.26983,-26.6942 -2.87033,-47.1143 -32.13063,-77.29228 -86.77924,-89.50095 -6.28175,-1.40337 -20.87137,-3.72016 -32.42137,-5.14843 -11.55,-1.42828 -23.8798,-3.25408 -27.39955,-4.05733 -12.95169,-2.95577 -25.66517,-10.87041 -32.78895,-20.41244 -2.03413,-2.72463 -3.83663,-4.81565 -4.00556,-4.64672 -0.16894,0.16893 0.84427,6.56938 2.25158,14.22321 16.33791,88.85626 58.12854,150.76486 112.96722,167.34956 14.87415,4.4983 22.54344,5.1895 31.97526,2.8818 z m 255.00004,51.18487 c -50.216,-5.3566 -93.40495,-35.0767 -115.87055,-79.73527 -7.16724,-14.2475 -12.817,-33.155 -14.12323,-47.2649 -0.33096,-3.575 -0.82565,-7.9625 -1.09932,-9.75 l -0.49757,-3.25 h 42.53371 42.53371 l 0.2616,39.25 0.26161,39.25 4.75,0.3048 4.75,0.3048 v -22.2941 -22.2941 l 17.49784,17.4765 17.4979,17.4764 -11.7322,11.7628 -11.73228,11.76287 h 23.50788 23.5078 l 7.7266,7.7721 7.7265,7.7721 v 15.1001 15.1001 l -3.75,0.5787 c -7.4064,1.1431 -25.9033,1.5141 -33.75,0.6771 z m -665.50004,-1.5206 c -39.96517,-6.8023 -75.12368,-29.6165 -97.26594,-63.11547 -37.49439,-56.7252 -30.79217,-131.4048 16.22008,-180.73234 22.15995,-23.2513 51.32452,-38.21709 84.05597,-43.13328 73.54361,-11.04608 144.95898,37.56129 161.8328,110.14812 17.71083,76.1874 -27.29542,152.45887 -102.34291,173.43897 -17.4009,4.8646 -45.04152,6.3656 -62.5,3.394 z m 67,-53.47957 v -5 h 5 5 v -10.5 -10.5 h -5 -5 v -10 -10 h -5 -5 v -4.5 -4.5 h 20 20 v -10 -10 h -5 -5 v -5 -5 h -5 -5 v -5 -5 h -5 -5 v -5 -5 h -5 -5 v -5 -5 h -5 -5 v -5 -5 h -5 -5 v -5 -5 h -5 -5 v -5 -5 h -5 -5 v -4.94521 -4.94521 l -4.75,-0.30479 -4.75,-0.30479 -0.30479,-4.75 -0.30479,-4.75 h -4.44521 c -4.39331,0 -4.44521,-0.0399 -4.44521,-3.41821 0,-5.66927 -0.76163,-6.58179 -5.49345,-6.58179 h -4.27946 l -0.67482,-4.5 -0.67482,-4.5 h -4.93872 -4.93873 v 84.535 84.535 l 10.25,-0.285 10.25,-0.285 0.30264,-4.6974 0.30264,-4.6973 4.69736,-0.3027 c 4.48045,-0.2886 4.71167,-0.4505 5.00727,-3.5064 0.51473,-5.3211 -1.20292,-7.2962 -6.34509,-7.2962 h -4.46482 v 5 5 h -4.5 -4.5 v -69 -69 h 4.5 4.5 v 5 5 h 5 5 v 5 5 h 5 5 v 5 5 h 5 5 v 5 5 h 5 5 v 5 5 h 4.44521 4.44521 l 0.30479,4.75 0.30479,4.75 4.75,0.3048 4.75,0.3048 v 4.4452 4.4452 h 5 5 v 5 5 h 5 5 v 5 5 h 5 5 v 5 5 h -20 -20 v 10 10 h 5 5 v 10 10 h 5 5 v 9.5 9.5 h -9.5 -9.5 v -10 -10 h -5 -5 v -10.1393 -10.1393 l -5,0.5922 -5,0.5922 v -5.4529 -5.4529 h -5 -5 v 5 5 h -5 -5 v 5.5 5.5 h 5.5 5.5 v -5 -5 h 3.96379 3.96379 l 0.28621,9.75 0.28621,9.75 4.71443,0.3033 4.71443,0.3034 0.28557,9.6966 0.28557,9.6967 4.75,0.3048 4.75,0.3048 v 4.2785 c 0,2.3532 0.3,4.5786 0.66667,4.9452 0.36666,0.3667 5.09166,0.6667 10.5,0.6667 h 9.83333 z m 645.00004,35.72917 v -16.2709 l -9,-8.9583 -9,-8.95827 v -23.5052 -23.5052 l -11.762,11.7313 -11.7619,11.7313 -20.7381,-20.7557 -20.73804,-20.7556 v -26.4958 -26.4958 l 41.50004,-41.491 41.5,-41.49096 v -16.19081 -16.19081 l 6.75,1.87194 c 39.891,11.06275 73.8622,39.3968 91.7206,76.50064 14.9759,31.1148 18.6177,67.3566 10.0796,100.3064 -10.9962,42.4356 -41.0265,77.89767 -81.3313,96.04217 -7.2446,3.2614 -24.5134,9.1514 -26.8308,9.1514 -0.2134,0 -0.3881,-7.3219 -0.3881,-16.2708 z M 894.04007,891.75613 c 3.83997,-50.12062 32.90427,-94.7916 76.66253,-117.82807 15.91683,-8.37939 28.60809,-12.70158 45.3574,-15.4471 9.0498,-1.48344 31.7584,-1.94102 41.0343,-0.82685 l 5.25,0.6306 v 15.11578 15.11578 l -37,36.98986 -37.00004,36.98986 v -21.74493 -21.74493 h -5 -5 v 39 39 h -42.35321 -42.3532 z M 1024.8443,718.00338 c -41.74255,-4.43723 -78.27817,-25.34572 -103.09217,-58.99725 -26.2956,-35.6608 -34.46481,-83.07187 -21.82769,-126.67991 13.83701,-47.74865 52.06148,-85.34066 100.41986,-98.7583 33.9723,-9.42605 68.556,-6.3782 101.7736,8.96925 27.4984,12.70505 55.0702,40.45262 68.0908,68.52484 34.5261,74.43775 2.5431,161.39436 -71.6455,194.79272 -22.1261,9.96078 -50.4267,14.62462 -73.7189,12.14865 z m 31.5479,-70.43339 c 0.6903,-4.63987 1.5244,-8.80237 1.8536,-9.25 0.3292,-0.44762 3.0735,-1.85974 6.0985,-3.13804 3.025,-1.2783 5.9549,-2.52265 6.5109,-2.76524 0.556,-0.24258 4.5402,2.10413 8.8537,5.2149 l 7.8428,5.65596 10.9074,-10.90737 10.9074,-10.90737 -5.6206,-7.79373 -5.6205,-7.79373 2.6094,-5.81467 c 1.4352,-3.19806 2.6095,-6.3005 2.6095,-6.8943 0,-0.59381 1.4625,-1.3177 3.25,-1.60866 1.7875,-0.29097 5.9201,-0.98636 9.1837,-1.54532 3.2635,-0.55896 6.076,-1.01629 6.25,-1.01629 0.1739,0 0.3163,-6.92881 0.3163,-15.39735 v -15.39734 l -6.75,-1.1272 c -12.6636,-2.11474 -11.6391,-1.46937 -14.676,-9.24457 -2.746,-7.03068 -2.7524,-7.10143 -0.8688,-9.70792 1.0435,-1.44409 3.4272,-4.78274 5.2969,-7.41923 l 3.3996,-4.79361 -10.9774,-10.97741 -10.9775,-10.97741 -7.1266,5.02102 c -3.9197,2.76156 -7.45,5.02102 -7.8451,5.02102 -0.3952,0 -3.7622,-1.18887 -7.4825,-2.64194 l -6.764,-2.64193 -1.1786,-7.60807 c -1.9185,-12.38523 -0.025,-11.19887 -17.3755,-10.8837 l -15.1745,0.27564 -1.285,7 c -2.0426,11.12671 -2.1831,11.55473 -3.9948,12.16699 -0.9461,0.31975 -4.0629,1.61652 -6.9262,2.88171 l -5.206,2.30036 -7.3288,-5.25847 -7.32876,-5.25846 -11.28641,10.79093 -11.2864,10.79094 5.51562,7.45822 5.51561,7.45821 -2.67011,6.83479 c -1.46855,3.75913 -3.07618,7.12195 -3.57249,7.47294 -0.49632,0.35098 -3.20728,0.92918 -6.02435,1.28488 -2.81707,0.35569 -6.58445,0.9061 -8.37195,1.22313 l -3.25,0.57641 v 15.36966 c 0,15.12882 0.0353,15.37724 2.25,15.85368 1.2375,0.26622 5.31952,1.06229 9.07115,1.76905 l 6.82115,1.28503 2.89431,6.8893 2.89432,6.88929 -5.47656,7.59406 -5.47655,7.59405 10.9081,10.90811 10.9081,10.9081 7.87419,-5.54909 c 7.39253,-5.20964 8.02583,-5.46519 10.35303,-4.17756 1.3633,0.75435 4.5532,2.078 7.0886,2.94145 l 4.6099,1.56992 1.2851,8.96618 1.2852,8.96619 h 15.7514 15.7514 z m -26.5488,-43.89134 c -15.1392,-4.97366 -24.1532,-20.0472 -21.313,-35.6408 1.898,-10.42108 8.0482,-18.32771 17.7598,-22.8319 15.936,-7.3911 35.8294,0.89265 42.0461,17.50835 5.6174,15.0139 -1.8713,33.10658 -16.2782,39.32831 -6.3034,2.72215 -16.6003,3.48049 -22.2147,1.63604 z M 689.84426,388.56633 c -21.09358,-3.54038 -39.60966,-10.32204 -55.28328,-20.24795 -28.93343,-18.32317 -50.29335,-45.20861 -61.02574,-76.81225 -13.51674,-39.80272 -8.97295,-84.39514 12.26105,-120.32908 15.25345,-25.81316 37.07495,-45.65158 64.04797,-58.22747 60.54059,-28.226428 134.28765,-10.71508 175.01066,41.55655 14.8038,19.002 23.53402,37.77171 28.60503,61.5 2.92895,13.70515 3.22594,40.58203 0.60465,54.71866 -10.7738,58.10318 -55.48143,103.91931 -113.52134,116.33605 -12.49322,2.67273 -39.04674,3.46123 -50.699,1.50549 z m -48.23603,-83.55777 c 11.98822,-4.48537 17.45371,-16.04826 13.23603,-28.00243 -1.9916,-5.64479 -1.90899,-8.74463 0.25,-9.38122 0.9625,-0.28379 6.70726,-1.61575 12.76614,-2.95991 6.05887,-1.34416 15.10484,-3.9797 20.10215,-5.85677 l 9.08603,-3.41285 40.89784,14.34527 c 45.84184,16.07942 51.49515,17.68962 58.84271,16.75991 5.68061,-0.71879 14.34596,-4.50083 16.9794,-7.41075 1.6577,-1.83174 1.6533,-1.96938 -0.0913,-2.85533 -1.00814,-0.51195 -20.39547,-7.82557 -43.08297,-16.2525 -22.6875,-8.42693 -41.25,-15.62484 -41.25,-15.99536 0,-0.50597 56.89067,-23.25068 82.39557,-32.94148 l 2.89557,-1.1002 -2.24396,-2.38859 c -2.78347,-2.96287 -10.05867,-6.10162 -16.16346,-6.97342 -7.72677,-1.10344 -16.5342,1.5193 -58.63051,17.45942 l -40.24679,15.23979 -5.75321,-2.5585 c -7.52159,-3.34492 -14.44858,-5.28731 -27.08536,-7.59499 -5.68268,-1.03775 -10.84147,-2.39614 -11.46396,-3.01863 -0.84243,-0.84243 -0.7813,-1.95924 0.23908,-4.36786 1.64723,-3.88832 2.48424,-12.64524 1.63922,-17.14962 -0.83552,-4.45368 -6.63135,-10.94771 -12.1588,-13.6235 -9.73186,-4.71111 -23.96286,-1.82369 -30.88831,6.26714 -3.92731,4.58818 -6.02395,11.91689 -5.05314,17.66304 1.35874,8.04235 8.77202,16.50012 16.68185,19.03224 2.03284,0.65077 11.38101,1.30532 21,1.47042 20.76343,0.35637 24.78229,1.45509 32.10425,8.77705 l 4.83841,4.83841 -1.80323,3.10637 c -2.76828,4.76886 -9.17517,9.75928 -14.75954,11.49645 -3.11827,0.97002 -11.34249,1.84621 -21.54368,2.29522 -15.10012,0.66464 -16.9359,0.95043 -21.63785,3.36852 -12.42313,6.38889 -17.3814,19.70351 -11.62693,31.22223 5.43009,10.86941 18.71778,15.29562 31.52875,10.50243 z m -17.80588,-7.82635 c -5.47674,-2.56359 -7.45809,-5.88197 -7.45809,-12.49086 0,-9.37645 7.38849,-16.68522 16.8672,-16.68522 5.00472,0 9.98416,2.2988 12.6328,5.83204 2.84926,3.80086 2.81406,13.93095 -0.0618,17.78284 -5.23705,7.01446 -14.09017,9.25439 -21.98012,5.5612 z m 2.63582,-76.41622 c -4.50403,-1.50577 -9.75538,-6.87429 -10.94749,-11.19173 -1.08545,-3.93119 -0.1375,-9.40661 2.26278,-13.06989 4.09653,-6.2521 15.33917,-7.91584 22.31151,-3.30176 9.22827,6.10698 9.78319,20.4959 1.01207,26.24295 -3.15856,2.06957 -10.43489,2.7259 -14.63887,1.32043 z"
       id="path295" />
  </g>
</svg>
